<svg width="100" height="100" viewBox="0 0 100 100" fill="none" xmlns="http://www.w3.org/2000/svg">
<path d="M78.6981 2.492C79.0413 1.72333 79.0925 1.85646 78.8487 2.88375C78.7524 3.28948 78.5858 4.038 78.4782 4.54686C78.3706 5.0557 78.1921 5.84044 78.0816 6.29058C77.9171 6.96134 77.339 9.93585 77.0788 11.45C77.0452 11.6457 76.9003 12.4305 76.7568 13.1937C76.2957 15.646 76.0322 17.688 75.6115 22.0683C75.2493 25.8399 75.3013 33.5909 75.7128 37.1423C75.7491 37.4554 75.7996 37.9998 75.8247 38.3521C75.908 39.5166 76.4009 44.6118 76.5063 45.3979C76.5484 45.711 76.615 46.2233 76.6544 46.5364C76.6938 46.8496 76.7901 47.5665 76.8684 48.1294C77.1284 49.9958 77.3743 52.9187 77.417 54.6499C77.4629 56.5106 77.3798 58.0623 77.1465 59.7027C76.5345 64.0056 75.3156 67.0966 73.0821 70.0077C72.5326 70.724 70.6217 72.6645 70.0749 73.0614C69.897 73.1906 69.6335 73.394 69.4896 73.5136C69.1387 73.8051 68.2032 74.4695 68.1425 74.4702C68.116 74.4704 67.8491 74.6266 67.5494 74.8175C67.0265 75.1504 64.3862 76.4622 64.2377 76.463C64.1985 76.4631 64.0468 76.5231 63.9006 76.5963C63.7543 76.6696 63.4085 76.804 63.1324 76.8948C62.8569 76.9853 62.6152 77.0807 62.5947 77.1071C62.5716 77.1369 62.2506 77.2457 61.7629 77.3946C60.4675 77.7902 59.556 78.9656 59.556 80.3201V88.903C59.556 88.9031 59.5561 88.9032 59.5562 88.9033C59.5562 88.9034 59.5563 88.9035 59.5563 88.9036V88.9711C59.5563 89.0144 59.539 89.0559 59.5083 89.0863L52.635 95.9043C51.4654 97.0644 49.5791 97.0644 48.4095 95.9043L42.3313 89.8749C41.7634 89.3117 41.444 88.5449 41.444 87.7451V80.3198C41.444 78.9654 40.5325 77.7899 39.2371 77.3945C38.7494 77.2457 38.4283 77.1369 38.4053 77.1071C38.3849 77.0807 38.1431 76.9853 37.8676 76.8948C37.5915 76.804 37.2457 76.6696 37.0994 76.5963C36.9531 76.5231 36.8015 76.463 36.7623 76.463C36.6134 76.462 33.9734 75.1503 33.4506 74.8175C33.1508 74.6266 32.8839 74.4703 32.8575 74.4702C32.7965 74.4692 31.8612 73.8051 31.5104 73.5136C31.3665 73.394 31.103 73.1906 30.9251 73.0614C30.3783 72.6644 28.4674 70.724 27.9179 70.0077C25.6844 67.0966 24.4655 64.0056 23.8535 59.7027C23.6202 58.0623 23.5371 56.5106 23.583 54.6499C23.6257 52.9187 23.8716 49.9958 24.1316 48.1294C24.2099 47.5665 24.3062 46.8496 24.3456 46.5364C24.385 46.2233 24.4516 45.711 24.4937 45.3979C24.5991 44.6119 25.092 39.5166 25.1753 38.3521C25.2004 37.9998 25.2509 37.4554 25.2872 37.1423C25.6987 33.5909 25.7507 25.8399 25.3885 22.0683C24.9678 17.688 24.7045 15.646 24.2435 13.1937C24.1 12.4305 23.9551 11.6457 23.9214 11.45C23.6613 9.93587 23.0829 6.96134 22.9184 6.29058C22.8079 5.84044 22.6294 5.05571 22.5218 4.54686C22.4142 4.038 22.2476 3.28948 22.1513 2.88375C21.9075 1.85644 21.9587 1.72332 22.3019 2.492C22.457 2.83934 22.7216 3.41579 22.89 3.77301C23.0584 4.13025 23.313 4.70671 23.4552 5.05402C23.5975 5.40126 23.8085 5.88707 23.9245 6.13349C24.0402 6.37949 24.1349 6.59364 24.1352 6.60973C24.1355 6.62588 24.2646 6.91034 24.4221 7.24251C24.5799 7.57513 24.7088 7.88458 24.7088 7.92995C24.7089 7.97528 24.7562 8.09725 24.814 8.20106C24.9647 8.47166 25.3026 9.22703 25.8218 10.4539C26.0703 11.041 26.635 12.3701 27.0765 13.4074C28.7314 17.2954 29.1851 18.373 29.4444 19.0298C29.514 19.2059 29.7384 19.7343 29.9429 20.2039C30.1475 20.6736 30.4123 21.3303 30.5316 21.663C30.6508 21.9956 30.8132 22.394 30.8925 22.5487C30.9718 22.7032 31.2568 23.392 31.526 24.079C31.7951 24.7659 32.118 25.5682 32.2435 25.8619C32.369 26.1554 32.5602 26.6199 32.6685 26.8939C32.8957 27.4687 33.889 29.9256 34.1072 30.4523C34.2536 30.8059 35.0116 32.6949 36.2925 35.8969C37.4007 38.6671 38.8042 42.0977 39.0053 42.5286C39.1091 42.7509 39.1939 42.9538 39.194 42.9797C39.1941 43.0054 39.3105 43.2876 39.4526 43.607C39.8836 44.5757 39.8744 44.5335 39.6441 44.4832C39.5345 44.4593 39.0735 44.3416 38.6201 44.2215C37.0047 43.7937 35.6279 43.4601 35.0097 43.3433C34.8016 43.304 34.6835 43.4037 34.6811 43.6155C34.676 44.0454 34.6824 44.8682 34.6997 45.807C34.7446 48.241 34.9042 50.728 35.1461 52.7637C35.3555 54.5258 36.0016 57.2185 36.5338 58.5465C37.4168 60.7495 38.083 61.8099 39.4342 63.1653C40.4514 64.1855 41.4905 64.9272 42.606 65.4292C42.8753 65.5503 43.1455 65.6907 43.2066 65.7409C43.348 65.8565 44.3446 66.2177 45.1818 66.4567C46.6367 66.8721 48.4391 67.2099 50.3436 67.4244C50.3829 67.4288 50.4221 67.4334 50.461 67.4379C50.4869 67.4409 50.5131 67.4408 50.539 67.4378C50.5779 67.4333 50.6171 67.4288 50.6564 67.4244C52.561 67.2099 54.3633 66.8721 55.8182 66.4567C56.6554 66.2177 57.6519 65.8565 57.7934 65.7409C57.8545 65.6907 58.1247 65.5503 58.394 65.4292C59.5095 64.9272 60.5486 64.1855 61.5658 63.1653C62.917 61.8099 63.5832 60.7495 64.4662 58.5465C64.9984 57.2185 65.6445 54.5258 65.8539 52.7637C66.0958 50.728 66.2554 48.241 66.3003 45.807C66.3188 44.8017 66.3248 43.9295 66.3177 43.5302C66.315 43.3748 66.2268 43.3012 66.0737 43.3281C65.5031 43.4285 64.0725 43.7733 62.3799 44.2215C61.9264 44.3416 61.4655 44.4594 61.3559 44.4832C61.1256 44.5335 61.1164 44.5757 61.5474 43.607C61.6895 43.2876 61.8059 43.0054 61.806 42.9797C61.8062 42.9537 61.8909 42.7508 61.9947 42.5286C62.1958 42.0977 63.5993 38.6671 64.7075 35.8969C65.9884 32.6949 66.7464 30.8059 66.8928 30.4523C67.111 29.9256 68.1043 27.4687 68.3315 26.8939C68.4398 26.6199 68.631 26.1554 68.7565 25.8619C68.882 25.5682 69.2049 24.7659 69.474 24.079C69.7432 23.392 70.0282 22.7032 70.1075 22.5487C70.1868 22.394 70.3492 21.9955 70.4684 21.663C70.5877 21.3303 70.8525 20.6736 71.0571 20.2039C71.2616 19.7343 71.486 19.2059 71.5556 19.0298C71.8149 18.373 72.2687 17.2954 73.9235 13.4074C74.365 12.3701 74.9297 11.041 75.1782 10.4539C75.6974 9.22703 76.0353 8.47166 76.186 8.20106C76.2438 8.09725 76.2911 7.97528 76.2912 7.92995C76.2913 7.88447 76.4204 7.57505 76.5781 7.24251C76.7356 6.91039 76.8645 6.62588 76.8648 6.60973C76.8652 6.59341 76.9599 6.37934 77.0755 6.13349C77.1915 5.88707 77.4025 5.40126 77.5448 5.05402C77.687 4.70671 77.9416 4.13025 78.11 3.77301C78.2784 3.41579 78.543 2.83934 78.6981 2.492Z" fill="#0000FF"/>
</svg>
